<svg xmlns="http://www.w3.org/2000/svg" xmlns:xlink="http://www.w3.org/1999/xlink" viewBox="0 0 278.37 278.37"><defs><style>.cls-1{fill:url(#linear-gradient);}.cls-2{fill:none;}.cls-3{fill:url(#linear-gradient-2);}.cls-4{fill:#fabb5b;}</style><linearGradient id="linear-gradient" y1="139.18" x2="278.37" y2="139.18" gradientUnits="userSpaceOnUse"><stop offset="0.29" stop-color="#3b9dd2"/><stop offset="1" stop-color="#397ebd"/></linearGradient><linearGradient id="linear-gradient-2" x1="120.66" y1="141.31" x2="209.11" y2="141.31" xlink:href="#linear-gradient"/></defs><g id="Layer_2" data-name="Layer 2"><g id="Blue_Letters" data-name="Blue Letters"><path class="cls-1" d="M237.6,40.76a139.18,139.18,0,1,0,40.77,98.42A138.79,138.79,0,0,0,237.6,40.76ZM212.93,212.93a104.31,104.31,0,1,1,30.54-73.75A104,104,0,0,1,212.93,212.93Z"/><path class="cls-2" d="M243.47,139.18a104.29,104.29,0,1,1-30.54-73.74A104,104,0,0,1,243.47,139.18Z"/><path class="cls-3" d="M126,216.57h0a15.5,15.5,0,0,1-1.47-21.87L163.55,150a15.5,15.5,0,0,0-.31-20.75l-38.09-41A15.51,15.51,0,0,1,126,66.37h0a15.5,15.5,0,0,1,21.9.81L205,128.63a15.51,15.51,0,0,1,.31,20.76L147.83,215.1A15.5,15.5,0,0,1,126,216.57Z"/><path class="cls-4" d="M107.58,179.41H98.45c-6,0-10.94-8.38-10.94-18.71V121.93c0-10.33,4.9-18.71,10.94-18.71h9.13c6,0,10.93,8.38,10.93,18.71V160.7C118.51,171,113.62,179.41,107.58,179.41Z"/></g></g></svg>